<svg version="1.1" xmlns="http://www.w3.org/2000/svg" xmlns:xlink="http://www.w3.org/1999/xlink" x="0px" y="0px" viewBox="-47 170.9 500 500" style="enable-background:new -47 170.9 500 500;" xml:space="preserve">

	<g id="icon-mask" fill="#FFFFFF">
		<path id="trim" d="M159,443.5l-1.6,34.6l-16.6,7.7c-8.5-2.4-20.3,1.2-35.4,10.7L65,522 c-30.4,19.1-54.3,22.8-72,10.8c-9.4-6.4-14.9-15.2-16.7-26.6c-1.7-11.4,0.8-22.1,7.5-32c9.6-14.2,22.9-23.5,39.8-27.8 c16.8-4.1,31.6-1.9,44.4,6.7c0.9,0.6,4,3,9.1,7.2l3.9,2.9c2.4,2,4.2,3.4,5.5,4.2c8.3,5.6,20,3.9,35-5.2c2.7-1.5,5.5-3,8.2-4.3 L159,443.5z M167.4,501.4l10.4-279.3c1.8-3.7,3.7-7,5.8-10c10.8-16,24.7-29.6,41.7-41l-20.2,290.7c-0.6,9.1-1.2,15.1-1.9,18.2 l-1.2,4.8c-3,12.5,0.3,22,9.9,28.5l1.6,1.1l4.6,2.6l8.9,5.2c16.3,9.9,25.8,28.7,28.6,56.6c2.9,28-2.4,51.8-15.7,71.5 c-6.8,10-14.8,16.4-24.2,19.4c-9.4,3-17.9,1.8-25.7-3.5c-10.1-6.8-14.7-24.4-13.7-52.6l3-78.3c0.6-17.1-2-27.7-8-31.8 C170.4,502.9,169.2,502.3,167.4,501.4z M44.4,515.1l9.9-5.7c8.8-5.2,14.8-10.2,18-14.9c6.3-9.3,2.9-18.3-10-27.1 c-9.5-6.4-21.1-8.1-34.9-4.9c-13.8,3.2-24.2,9.9-31.2,20.2c-4.2,6.1-5.6,12.9-4.3,20.3c1.3,7.4,4.9,13,10.8,17 C12.4,526.7,26.3,525.1,44.4,515.1z M193.5,564.7l-2.2,56.5c-0.5,17.4,2,28,7.7,31.8c4.7,3.2,9.4,3.7,14.2,1.5 c4.8-2.1,9.8-6.9,14.8-14.3c10.4-15.3,14.5-34.3,12.6-57.1c-2-22.8-9.2-38.4-21.5-46.8c-8.3-5.6-15-4.8-19.9,2.5 C196.1,543.2,194.2,551.8,193.5,564.7z M195.8,455.8c3.8-5.7,3-10.4-2.4-14c-5.4-3.7-10.1-2.7-13.9,3c-3.8,5.6-2.9,10.2,2.5,13.9 C187.4,462.3,192,461.3,195.8,455.8z M216.6,452.4l2.1-37.6l212.8-104c-3.9,18.2-10.2,33.7-19,46.7c-3.5,5.2-7.8,10.5-12.8,15.9 L216.6,452.4z"/>

	</g>

</svg>