<svg version="1.1" xmlns="http://www.w3.org/2000/svg" xmlns:xlink="http://www.w3.org/1999/xlink" x="0px" y="0px" viewBox="-47 170.9 500 500" style="enable-background:new -47 170.9 500 500;" xml:space="preserve">

	<path id="background" fill="#FFC83B" d="M453.1,238.5c0-37.3-30.2-67.6-67.6-67.6H20.6c-37.3,0-67.7,30.2-67.7,67.6v364.8 c0,37.3,30.2,67.6,67.6,67.6h364.8c37.3,0,67.6-30.2,67.6-67.6V238.5H453.1z"/>

	<g id="icon" fill="#FFFFFF">
		
		<path id="cutter" d="M171.3,437.4l-1.2,24.9l-12,5.6c-6.1-1.7-14.6,0.9-25.5,7.7l-29,18.3c-21.9,13.8-39.1,16.4-51.8,7.8 c-6.8-4.6-10.8-11-12-19.2c-1.3-8.2,0.5-15.9,5.4-23.1c6.9-10.3,16.5-16.9,28.7-20c12.1-3,22.8-1.4,31.9,4.8 c0.7,0.5,2.8,2.2,6.5,5.2l2.8,2.1c1.7,1.4,3,2.4,4,3c6,4.1,14.4,2.8,25.2-3.8c2-1.1,3.9-2.1,5.9-3.1L171.3,437.4z M177.4,479.1 l7.5-201.1c1.3-2.6,2.7-5,4.2-7.2c7.8-11.5,17.8-21.3,30-29.5l-14.5,209.3c-0.4,6.5-0.9,10.9-1.4,13.1l-0.9,3.4 c-2.2,9,0.2,15.8,7.1,20.5l1.1,0.8l3.3,1.9l6.4,3.8c11.7,7.1,18.6,20.7,20.6,40.7c2.1,20.1-1.7,37.3-11.3,51.5 c-4.9,7.2-10.7,11.8-17.4,13.9c-6.7,2.1-12.9,1.3-18.5-2.5c-7.3-4.9-10.6-17.6-9.9-37.9l2.2-56.4c0.5-12.3-1.5-20-5.8-22.9 C179.5,480.2,178.7,479.7,177.4,479.1z M88.8,488.9l7.2-4.1c6.3-3.8,10.6-7.3,12.9-10.8c4.5-6.7,2.1-13.2-7.2-19.5 c-6.8-4.6-15.2-5.8-25.2-3.5c-9.9,2.3-17.4,7.1-22.4,14.5c-3,4.4-4,9.3-3.1,14.6c0.9,5.3,3.5,9.4,7.7,12.3 C65.8,497.3,75.8,496.1,88.8,488.9z M196.1,524.6l-1.6,40.7c-0.4,12.5,1.5,20.1,5.6,22.9c3.4,2.3,6.8,2.6,10.3,1.1 c3.5-1.5,7-5,10.6-10.3c7.5-11,10.5-24.7,9.1-41.1c-1.4-16.4-6.6-27.6-15.5-33.7c-6-4.1-10.8-3.5-14.3,1.8 C198,509.2,196.7,515.4,196.1,524.6z M197.8,446.2c2.8-4.1,2.2-7.5-1.7-10.1c-3.9-2.7-7.3-1.9-10,2.1c-2.7,4-2.1,7.3,1.8,10 C191.8,450.9,195.1,450.2,197.8,446.2z M212.8,443.7l1.5-27.1l153.2-74.9c-2.8,13.1-7.3,24.3-13.6,33.6c-2.5,3.8-5.6,7.6-9.2,11.5 L212.8,443.7z"/>
		
	</g>
	
</svg>